<svg width="1939" height="468" xmlns="http://www.w3.org/2000/svg" xmlns:xlink="http://www.w3.org/1999/xlink" xml:space="preserve" overflow="hidden"><defs><clipPath id="clip0"><rect x="132" y="1143" width="294" height="294"/></clipPath><clipPath id="clip1"><rect x="132" y="1142" width="294" height="295"/></clipPath><clipPath id="clip2"><rect x="132" y="1142" width="294" height="295"/></clipPath></defs><g transform="translate(-128 -1067)"><g><g clip-path="url(#clip0)"><g clip-path="url(#clip1)"><g clip-path="url(#clip2)"><path d="M131.495 1308.19C131.495 1301.11 131.495 1294.04 131.495 1286.97 133.349 1283.09 135.37 1279.22 137.557 1275.35 135.613 1269.64 133.592 1264.08 131.495 1258.68 131.495 1253.97 131.495 1249.25 131.495 1244.54 136.183 1226.39 147.97 1216.62 166.856 1215.24 167.656 1195.41 177.759 1183.46 197.165 1179.37 202.216 1178.7 207.268 1178.7 212.32 1179.37 216.002 1180.55 219.707 1181.22 223.433 1181.39 227.321 1175.3 231.699 1169.58 236.567 1164.22 246.528 1157.01 257.641 1154.65 269.907 1157.14 274.765 1158.73 279.142 1161.09 283.041 1164.22 279.792 1170.17 275.751 1175.55 270.917 1180.38 261.239 1184.84 251.136 1187.87 240.608 1189.47 246.159 1195.03 252.726 1198.9 260.309 1201.09 257.584 1212.67 258.931 1223.78 264.35 1234.43 266.371 1236.45 268.392 1238.47 270.412 1240.49 264.995 1202.3 280.992 1178.9 318.402 1170.28 359.038 1165.84 383.958 1183.52 393.165 1223.32 409.157 1227.83 417.576 1238.44 418.423 1255.14 417.415 1263.38 415.226 1271.3 411.856 1278.89 391.172 1263.26 375.344 1243.73 364.371 1220.29 363.077 1232.73 365.265 1244.51 370.938 1255.65 356.874 1255.58 342.729 1255.75 328.505 1256.15 325.093 1256.61 321.725 1257.28 318.402 1258.18 335.365 1260.82 351.867 1265.19 367.907 1271.31 382.84 1276.99 394.458 1286.59 402.763 1300.1 406.13 1308.86 406.13 1317.61 402.763 1326.37 392.865 1343.13 381.246 1358.62 367.907 1372.85 369.896 1384.24 372.254 1395.52 374.979 1406.69 359.19 1406.46 347.234 1399.55 339.113 1385.98 336.24 1378.86 332.704 1372.12 328.505 1365.77 321.802 1363.81 315.066 1361.96 308.299 1360.22 306.558 1359.69 305.211 1358.68 304.258 1357.19 310.12 1350.98 315.677 1344.41 320.928 1337.48 333.473 1321.53 349.806 1314.62 369.928 1316.77 364.77 1310.1 357.867 1306.9 349.216 1307.18 337.434 1308.44 326.826 1312.65 317.392 1319.8 305.604 1329.57 293.818 1339.34 282.031 1349.1 264.544 1360.44 247.033 1360.44 229.495 1349.1 216.089 1329.47 217.773 1311.28 234.546 1294.55 237.74 1293.12 240.771 1291.43 243.639 1289.49 232.738 1287.49 221.962 1288.16 211.309 1291.52 209.864 1291.99 208.685 1292.83 207.773 1294.04 193.21 1285.27 177.551 1282.41 160.794 1285.45 171.85 1288.24 181.954 1292.95 191.103 1299.6 201.522 1311.13 204.889 1324.43 201.206 1339.51 183.331 1347.88 166.83 1345.69 151.701 1332.94 146.481 1327.72 141.261 1322.5 136.041 1317.28 134.222 1314.31 132.706 1311.28 131.495 1308.19Z" fill="#518AC5" fill-rule="evenodd" fill-opacity="0.999"/></g></g></g><text fill="#0D0D0D" fill-opacity="1" font-family="Segoe UI,Segoe UI_MSFontService,sans-serif" font-style="normal" font-variant="normal" font-weight="400" font-stretch="normal" font-size="220" text-anchor="start" direction="ltr" writing-mode="lr-tb" unicode-bidi="normal" text-decoration="none" transform="matrix(1 0 0 1 448.152 1348)">neural</text><text fill="#5189C5" fill-opacity="1" font-family="Segoe UI,Segoe UI_MSFontService,sans-serif" font-style="normal" font-variant="normal" font-weight="400" font-stretch="normal" font-size="220" text-anchor="start" direction="ltr" writing-mode="lr-tb" unicode-bidi="normal" text-decoration="none" transform="matrix(1 0 0 1 1053.72 1348)">-</text><text fill="#5189C5" fill-opacity="1" font-family="Segoe UI,Segoe UI_MSFontService,sans-serif" font-style="normal" font-variant="normal" font-weight="400" font-stretch="normal" font-size="220" text-anchor="start" direction="ltr" writing-mode="lr-tb" unicode-bidi="normal" text-decoration="none" transform="matrix(1 0 0 1 1141.95 1348)">encoder</text></g></g></svg>